<?xml version="1.0" encoding="UTF-8" ?>
<!DOCTYPE svg PUBLIC "-//W3C//DTD SVG 1.1//EN" "http://www.w3.org/Graphics/SVG/1.1/DTD/svg11.dtd">
<svg width="2000pt" height="517pt" viewBox="0 0 2000 517" version="1.1" xmlns="http://www.w3.org/2000/svg">
<path fill="#ddb43f" opacity="1.00" d=" M 252.36 0.00 L 264.57 0.00 C 271.44 0.24 278.30 0.61 285.14 1.26 C 282.40 11.75 279.53 22.22 276.82 32.72 C 238.13 29.63 198.76 36.63 163.50 52.85 C 158.18 43.55 152.72 34.33 147.31 25.08 C 180.08 9.52 216.08 0.82 252.36 0.00 Z" />
<path fill="#ddb43f" opacity="1.00" d=" M 330.14 43.60 C 332.98 33.27 335.76 22.93 338.50 12.57 C 367.36 22.17 394.73 36.47 418.59 55.40 C 433.74 67.36 447.46 81.10 459.66 96.06 C 450.23 101.45 440.88 106.95 431.42 112.27 C 404.71 80.74 369.38 56.63 330.14 43.60 Z" />
<path fill="#ddb43f" opacity="1.00" d=" M 18.80 161.25 C 36.18 119.00 64.59 81.30 100.90 53.49 C 106.35 62.80 111.67 72.19 117.10 81.52 C 87.91 104.74 64.76 135.34 50.05 169.59 C 39.64 166.81 29.23 163.99 18.80 161.25 Z" />
<path fill="#ddb43f" opacity="1.00" d=" M 239.57 59.76 C 274.69 56.31 310.71 62.32 342.71 77.24 C 373.12 91.32 399.85 113.23 419.70 140.23 C 439.71 167.33 452.68 199.59 456.87 233.03 C 461.91 272.19 455.06 312.82 437.16 348.04 C 419.39 383.35 390.87 413.13 356.38 432.44 C 323.92 450.76 286.21 459.53 249.00 457.60 C 217.46 456.09 186.33 446.88 159.05 430.98 C 128.03 413.01 102.02 386.52 84.60 355.19 C 66.61 323.04 57.93 285.81 59.72 249.03 C 61.22 215.06 71.68 181.56 89.75 152.77 C 110.54 119.45 141.35 92.47 177.18 76.37 C 196.88 67.46 218.05 61.84 239.57 59.76 M 220.91 93.15 C 189.69 99.55 160.61 115.65 138.58 138.67 C 114.54 161.62 97.92 192.23 92.12 224.98 C 89.18 240.14 89.48 255.64 89.73 271.00 C 91.03 304.50 103.35 337.46 124.43 363.54 C 130.15 370.77 136.75 377.22 143.31 383.68 C 165.15 404.77 193.23 419.28 223.07 424.90 C 239.40 428.09 256.14 428.06 272.70 427.43 C 269.08 408.66 266.86 389.50 260.75 371.30 C 257.80 363.12 253.54 355.47 248.81 348.18 C 247.77 346.61 246.70 344.97 245.07 343.96 C 239.05 340.54 232.79 337.45 226.02 335.85 C 216.38 332.32 205.42 329.59 198.92 320.97 C 192.32 314.08 191.44 304.04 191.25 294.99 C 191.03 282.19 195.99 270.20 199.41 258.10 C 189.16 257.39 178.80 256.82 168.84 254.15 C 160.35 252.12 152.48 248.18 144.75 244.21 C 136.65 240.00 130.29 233.35 124.46 226.46 C 118.73 219.58 116.58 210.62 114.39 202.14 C 114.16 199.37 112.32 194.55 116.04 193.41 C 125.92 191.91 135.96 192.11 145.93 192.20 C 159.86 192.28 173.55 195.18 187.07 198.20 C 203.14 202.45 218.49 210.27 230.55 221.82 C 234.13 219.12 238.10 216.99 242.27 215.33 C 242.04 207.52 243.70 199.85 244.65 192.14 C 247.55 171.44 257.73 152.60 269.95 135.95 C 271.77 133.54 274.79 131.41 277.95 132.33 C 281.59 133.51 284.54 136.17 286.97 139.03 C 292.91 146.92 298.69 155.49 300.41 165.41 C 303.96 181.02 302.42 197.20 299.72 212.82 C 304.50 214.17 309.57 215.23 313.62 218.30 C 317.21 220.96 318.91 225.26 320.88 229.11 C 323.55 228.94 326.05 230.16 327.81 232.12 C 332.68 237.37 334.67 244.73 334.76 251.76 C 336.84 253.23 338.97 254.67 341.40 255.49 C 352.95 259.31 364.96 261.56 376.50 265.39 C 381.72 268.06 387.47 265.10 393.00 265.78 C 397.63 266.05 403.93 267.19 405.34 272.43 C 406.36 277.42 406.56 283.12 403.47 287.47 C 401.27 290.60 402.05 294.76 400.14 298.04 C 395.65 308.44 385.47 314.31 377.06 321.18 C 374.80 323.35 370.78 323.43 369.62 326.67 C 366.28 333.89 360.27 339.31 354.50 344.57 C 348.63 348.99 341.60 351.90 334.37 353.11 C 326.44 354.11 318.41 353.88 310.46 353.29 C 314.46 373.99 321.08 394.09 327.75 414.06 C 352.38 403.52 373.21 385.71 390.39 365.41 C 418.51 331.37 431.93 285.81 427.60 241.94 C 424.92 213.77 414.93 186.34 398.93 163.01 C 378.35 132.86 347.91 109.43 313.26 97.82 C 283.68 87.75 251.36 86.29 220.91 93.15 Z" />
<path fill="#ddb43f" opacity="1.00" d=" M 461.43 158.00 C 470.74 152.77 479.89 147.26 489.19 142.02 C 506.97 177.61 516.91 217.23 516.85 257.08 C 516.91 269.41 516.02 281.73 514.41 293.96 C 503.97 291.25 493.56 288.42 483.15 285.62 C 488.70 242.14 480.93 197.23 461.43 158.00 Z" />
<path fill="#ddb43f" opacity="1.00" d=" M 991.63 170.82 C 1012.63 167.81 1034.78 171.25 1053.31 181.80 C 1072.85 192.74 1087.75 211.59 1093.83 233.15 C 1099.82 254.31 1098.17 277.73 1088.53 297.57 C 1078.57 318.43 1059.83 334.72 1037.97 342.12 C 1018.43 348.80 996.77 349.08 977.00 343.13 C 957.17 337.20 939.51 324.10 928.47 306.54 C 909.74 277.23 910.38 236.80 930.28 208.23 C 944.18 187.75 967.20 174.16 991.63 170.82 M 994.39 205.67 C 982.14 208.19 971.04 215.63 964.01 225.97 C 948.42 248.57 952.01 282.93 973.52 300.57 C 987.13 312.03 1006.84 315.13 1023.54 309.37 C 1034.48 305.63 1043.92 297.86 1049.85 287.95 C 1057.90 274.73 1059.68 258.19 1055.82 243.32 C 1052.54 230.74 1044.61 219.31 1033.56 212.36 C 1022.07 205.02 1007.65 202.86 994.39 205.67 Z" />
<path fill="#ddb43f" opacity="1.00" d=" M 1247.50 170.82 C 1267.30 168.00 1288.10 170.86 1305.96 180.07 C 1322.45 188.47 1336.13 202.30 1344.22 218.95 C 1358.86 248.71 1355.49 286.71 1334.89 312.89 C 1322.41 329.10 1304.02 340.45 1284.10 344.90 C 1262.74 349.66 1239.69 347.60 1219.90 338.08 C 1203.68 330.32 1189.96 317.40 1181.41 301.57 C 1171.08 282.69 1168.33 260.04 1172.82 239.08 C 1176.82 220.36 1187.23 203.09 1201.96 190.86 C 1214.84 180.04 1230.87 173.18 1247.50 170.82 M 1250.41 205.59 C 1239.27 207.82 1228.98 214.03 1221.90 222.93 C 1205.15 243.75 1206.23 276.83 1224.62 296.31 C 1236.63 309.41 1255.75 314.74 1272.98 311.10 C 1287.34 308.34 1300.07 298.69 1306.85 285.76 C 1317.93 264.89 1314.96 236.83 1298.25 219.75 C 1286.21 207.05 1267.38 202.00 1250.41 205.59 Z" />
<path fill="#ddb43f" opacity="1.00" d=" M 697.89 172.80 C 724.94 172.81 751.99 172.77 779.05 172.82 C 795.51 173.08 812.83 177.34 825.13 188.87 C 836.43 199.20 841.24 214.96 840.97 229.95 C 841.19 244.02 836.80 258.58 826.88 268.86 C 820.68 275.48 812.68 280.18 804.24 283.35 C 818.32 303.72 832.28 324.18 846.33 344.57 C 831.61 344.57 816.89 344.54 802.17 344.59 C 789.76 326.36 777.49 308.03 765.12 289.78 C 755.28 289.78 745.44 289.78 735.60 289.78 C 735.60 308.04 735.60 326.31 735.60 344.57 C 723.03 344.56 710.46 344.57 697.89 344.57 C 697.88 287.31 697.89 230.06 697.89 172.80 M 735.60 206.83 C 735.60 223.23 735.59 239.63 735.61 256.03 C 748.08 256.03 760.54 256.03 773.01 256.03 C 779.44 256.04 786.08 255.03 791.68 251.70 C 804.09 244.78 806.04 226.13 797.43 215.54 C 791.91 209.18 783.10 207.09 775.01 206.85 C 761.88 206.79 748.74 206.84 735.60 206.83 Z" />
<path fill="#ddb43f" opacity="1.00" d=" M 1434.02 172.80 C 1461.66 172.82 1489.30 172.75 1516.93 172.84 C 1533.07 173.29 1550.42 178.11 1561.09 190.98 C 1570.20 201.50 1572.04 216.69 1568.69 229.84 C 1565.90 240.89 1557.46 249.46 1547.89 255.11 C 1556.43 258.45 1564.88 262.91 1570.88 270.03 C 1576.10 276.15 1578.83 284.09 1579.45 292.04 C 1580.51 303.51 1578.35 315.79 1570.94 324.92 C 1562.27 335.85 1548.52 341.21 1535.12 343.48 C 1523.20 345.60 1511.06 344.95 1499.02 345.06 C 1477.35 345.05 1455.69 345.06 1434.02 345.05 C 1434.03 287.64 1434.03 230.22 1434.02 172.80 M 1471.06 205.42 C 1471.04 217.52 1471.05 229.61 1471.05 241.71 C 1481.35 241.69 1491.65 241.71 1501.95 241.69 C 1510.09 242.12 1518.92 241.78 1525.98 237.19 C 1533.28 232.45 1534.56 221.75 1530.57 214.48 C 1526.56 207.87 1518.28 205.88 1511.08 205.50 C 1497.74 205.33 1484.39 205.50 1471.06 205.42 M 1471.06 273.37 C 1471.04 285.92 1471.05 298.48 1471.05 311.03 C 1486.71 311.00 1502.36 311.10 1518.01 310.98 C 1525.94 310.67 1535.22 309.02 1539.93 301.90 C 1544.16 294.72 1543.35 283.91 1536.32 278.73 C 1530.52 274.47 1523.04 273.59 1516.05 273.40 C 1501.05 273.34 1486.05 273.41 1471.06 273.37 Z" />
<path fill="#ddb43f" opacity="1.00" d=" M 1658.22 343.87 C 1658.26 286.85 1658.40 229.82 1658.46 172.80 C 1701.53 172.81 1744.61 172.79 1787.69 172.81 C 1787.66 183.99 1787.71 195.18 1787.66 206.36 C 1757.01 206.33 1726.36 206.37 1695.71 206.34 C 1695.69 217.89 1695.70 229.43 1695.70 240.97 C 1722.66 240.99 1749.62 240.95 1776.58 240.99 C 1776.58 252.18 1776.57 263.36 1776.58 274.54 C 1749.62 274.53 1722.66 274.54 1695.70 274.54 C 1695.70 286.47 1695.70 298.39 1695.70 310.32 C 1726.75 310.32 1757.80 310.33 1788.85 310.31 C 1788.85 321.50 1788.84 332.69 1788.85 343.87 C 1745.31 343.86 1701.77 343.87 1658.22 343.87 Z" />
<path fill="#ddb43f" opacity="1.00" d=" M 1857.92 173.04 C 1905.28 173.03 1952.64 173.03 2000.00 173.04 L 2000.00 207.74 C 1982.69 207.75 1965.38 207.73 1948.08 207.75 C 1948.08 253.28 1948.09 298.82 1948.08 344.35 C 1935.43 344.36 1922.78 344.35 1910.14 344.35 C 1910.14 298.82 1910.14 253.28 1910.14 207.75 C 1892.73 207.73 1875.32 207.75 1857.92 207.74 C 1857.91 196.17 1857.91 184.60 1857.92 173.04 Z" />
<path fill="#ddb43f" opacity="1.00" d=" M 0.00 251.64 C 0.55 238.93 1.68 226.24 3.80 213.69 C 14.09 216.38 24.33 219.22 34.58 222.03 C 33.02 236.96 31.48 251.97 32.11 267.01 C 32.78 289.18 37.16 311.14 44.32 332.10 C 45.47 334.51 43.75 336.83 41.55 337.74 C 33.27 342.06 25.58 347.42 17.20 351.53 C 6.79 324.39 0.97 295.55 0.00 266.50 L 0.00 251.64 Z" />
<path fill="#ddb43f" opacity="1.00" d=" M 470.42 339.53 C 471.91 338.70 473.55 339.67 475.04 339.99 C 483.62 342.67 492.49 344.35 501.03 347.14 C 490.92 375.84 475.40 402.64 455.69 425.82 C 440.92 443.19 423.74 458.46 405.05 471.50 C 399.68 462.27 394.34 453.02 389.13 443.70 C 400.71 434.87 412.07 425.65 422.10 415.04 C 441.97 394.43 457.64 369.86 468.25 343.29 C 468.87 341.99 469.22 340.43 470.42 339.53 Z" />
<path fill="#ddb43f" opacity="1.00" d=" M 42.60 400.27 C 51.68 394.69 60.96 389.45 70.15 384.06 C 92.87 418.00 124.77 445.68 161.71 463.15 C 158.90 473.63 156.12 484.13 153.37 494.63 C 130.44 484.19 108.84 470.70 89.80 454.18 C 71.64 438.53 55.88 420.20 42.60 400.27 Z" />
<path fill="#ddb43f" opacity="1.00" d=" M 213.20 480.47 C 255.74 489.08 300.62 485.15 341.05 469.38 C 346.43 478.72 351.81 488.07 357.26 497.38 C 328.19 509.27 297.03 516.11 265.61 517.00 L 251.63 517.00 C 235.93 516.40 220.27 514.64 204.88 511.49 C 207.62 501.14 210.51 490.83 213.20 480.47 Z" />
</svg>
